<svg xmlns="http://www.w3.org/2000/svg" viewBox="50 -5 230 180">
  <g transform="matrix(3.0874605,0,0,3.0874605,-3485.8023,-1665.73)">
    <g>
      <circle
        style="fill:#94b4c1;fill-opacity:1;stroke:none;stroke-width:1.361;stroke-linecap:round;stroke-linejoin:round;stroke-opacity:1"
        cx="1176.4012"
        cy="565.48187"
        r="21.047476" />
      <path
        style="fill:none;stroke:#eae0cf;stroke-width:1.361;stroke-linecap:round;stroke-linejoin:round;stroke-opacity:1"
        d="m 1156.4419,572.22826 c 0,0 9.2082,-21.63212 35.2253,-21.33981" />
      <path
        style="fill:none;stroke:#eae0cf;stroke-width:1.361;stroke-linecap:round;stroke-linejoin:round;stroke-opacity:1"
        d="m 1160.8581,579.39061 c 0,0 9.2082,-21.63212 35.2253,-21.33981" />
      <path
        style="fill:none;stroke:#eae0cf;stroke-width:1.361;stroke-linecap:round;stroke-linejoin:round;stroke-opacity:1"
        d="m 1166.1749,583.46399 c 0,0 5.1244,-19.24992 31.1415,-18.95761" />
      <path
        style="fill:none;stroke:#eae0cf;stroke-width:1.361;stroke-linecap:round;stroke-linejoin:round;stroke-opacity:1"
        d="m 1179.496,568.52725 c 0,0 7.857,1.42387 13.5694,8.97128" />
      <path
        style="fill:none;stroke:#eae0cf;stroke-width:1.361;stroke-linecap:round;stroke-linejoin:round;stroke-opacity:1"
        d="m 1187.3051,565.60695 c 0,0 5.2348,1.10755 9.0471,5.58553" />
      <path
        style="fill:none;stroke:#eae0cf;stroke-width:1.361;stroke-linecap:round;stroke-linejoin:round;stroke-opacity:1"
        d="m 1173.4499,572.85962 c 0,0 8.8387,2.3423 14.5511,9.88971" />
      <path
        style="fill:none;stroke:#eae0cf;stroke-width:1.361;stroke-linecap:round;stroke-linejoin:round;stroke-opacity:1"
        d="m 1169.8026,577.97154 c 0,0 5.3222,0.13026 11.0346,7.67767" />
    </g>
    <path
      style="fill:none;stroke:#94b4c1;stroke-width:1.361;stroke-linecap:round;stroke-linejoin:round;stroke-opacity:1"
      d="m 1190.9363,579.68258 c 0,0 6.7236,0.43849 7.6005,4.23873 0.877,3.80023 10.0853,2.3386 10.9623,1.31545" />
  </g>
</svg>
